# xmcd
#
# Track frame offsets:
# 182
# 15235
# 28872
# 46057
# 63902
# 82007
# 97195
# 112520
# 127972
# 142987
# 155060
# 171222
# 187870
# 200387
# 219135
#
# Disc length: 3181 seconds
#
#
# Revision: 7
# Processed by: cddbd v1.5.1PL2 Copyright (c) Steve Scherf et al.
# Submitted via: FreeRIP 2.944 
#
DISCID=b80c6b0f
DTITLE=Leandro and Leonardo - Leandro and Leonardo (Coletânia 1991)
DYEAR=1991
DGENRE=Country
TTITLE0=Entre Tapas E Beijos
TTITLE1=Cade Você
TTITLE2=Talvez Você Se Lembre
TTITLE3=O Cheiro Da Maça
TTITLE4=Solidão
TTITLE5=Coração Quer Te Encontrar
TTITLE6=Mais Uma Vez Sozinho
TTITLE7=Pra Nunca Dizer Adeus
TTITLE8=Pense Em Mim
TTITLE9=Só Fazendo Amor
TTITLE10=Quem Será Essa Mulher
TTITLE11=Você Ainda Vai Voltar
TTITLE12=Ponto Fraco
TTITLE13=Desculpe, Mas Eu Vou Chorar
TTITLE14=Talisma
EXTD=Cbs M2k 42511 YEAR: 1991
EXTT0=(Nilton Lamas - Ant nio Bueno)
EXTT1=(Odair Jos )
EXTT2=(Abt nio Marcos-D'Carlo)
EXTT3=(Zez  Di Camargo)
EXTT4=(Zez  Di Camargo)
EXTT5=(Rhael)
EXTT6=(Jos  Fernandes)
EXTT7=(Parchoal - Areia Lima - Jos  Neris)
EXTT8=(Douglar Maio - Z  Ribeiro - Mario Soares)
EXTT9=(Nlton Lamas)
EXTT10=(Zez  Di Camargo)
EXTT11=(Cesar Augusto)
EXTT12=(Rhael)
EXTT13=(Cesar Augusto - Gabriel)
EXTT14=(Michael Sulivan - Paulo Massadas)
PLAYORDER=
